<mxfile host="app.diagrams.net" agent="Mozilla/5.0 (Windows NT 10.0; Win64; x64; rv:137.0) Gecko/20100101 Firefox/137.0" version="26.2.7">
  <diagram name="Página-1" id="deaSoXoCXRlb5DoINb2d">
    <mxGraphModel dx="1108" dy="1776" grid="1" gridSize="10" guides="1" tooltips="1" connect="1" arrows="1" fold="1" page="1" pageScale="1" pageWidth="827" pageHeight="1169" background="none" math="0" shadow="0">
      <root>
        <mxCell id="0" />
        <mxCell id="1" parent="0" />
        <mxCell id="P_nVTB-D-GrxN7raJfvm-1" value="" style="edgeStyle=orthogonalEdgeStyle;rounded=0;orthogonalLoop=1;jettySize=auto;html=1;" edge="1" parent="1" source="P_nVTB-D-GrxN7raJfvm-2" target="P_nVTB-D-GrxN7raJfvm-4">
          <mxGeometry relative="1" as="geometry" />
        </mxCell>
        <mxCell id="P_nVTB-D-GrxN7raJfvm-2" value="Início" style="rounded=1;whiteSpace=wrap;html=1;fontSize=12;glass=0;strokeWidth=1;shadow=0;" vertex="1" parent="1">
          <mxGeometry x="330" y="-1070" width="60" height="40" as="geometry" />
        </mxCell>
        <mxCell id="P_nVTB-D-GrxN7raJfvm-3" value="" style="edgeStyle=orthogonalEdgeStyle;rounded=0;orthogonalLoop=1;jettySize=auto;html=1;" edge="1" parent="1" source="P_nVTB-D-GrxN7raJfvm-4" target="P_nVTB-D-GrxN7raJfvm-5">
          <mxGeometry relative="1" as="geometry" />
        </mxCell>
        <mxCell id="P_nVTB-D-GrxN7raJfvm-4" value="&lt;div&gt;&lt;br&gt;&lt;/div&gt;&lt;div&gt;&lt;br&gt;&lt;/div&gt;Ler n1" style="shape=manualInput;whiteSpace=wrap;html=1;" vertex="1" parent="1">
          <mxGeometry x="315" y="-940" width="90" height="60" as="geometry" />
        </mxCell>
        <mxCell id="P_nVTB-D-GrxN7raJfvm-7" value="" style="edgeStyle=orthogonalEdgeStyle;rounded=0;orthogonalLoop=1;jettySize=auto;html=1;" edge="1" parent="1" source="P_nVTB-D-GrxN7raJfvm-5" target="P_nVTB-D-GrxN7raJfvm-6">
          <mxGeometry relative="1" as="geometry" />
        </mxCell>
        <mxCell id="P_nVTB-D-GrxN7raJfvm-5" value="&lt;div&gt;&lt;br&gt;&lt;/div&gt;&lt;div&gt;&lt;br&gt;&lt;/div&gt;Ler n2" style="shape=manualInput;whiteSpace=wrap;html=1;" vertex="1" parent="1">
          <mxGeometry x="315" y="-800" width="90" height="60" as="geometry" />
        </mxCell>
        <mxCell id="P_nVTB-D-GrxN7raJfvm-9" value="" style="edgeStyle=orthogonalEdgeStyle;rounded=0;orthogonalLoop=1;jettySize=auto;html=1;" edge="1" parent="1" source="P_nVTB-D-GrxN7raJfvm-6" target="P_nVTB-D-GrxN7raJfvm-8">
          <mxGeometry relative="1" as="geometry" />
        </mxCell>
        <mxCell id="P_nVTB-D-GrxN7raJfvm-6" value="soma = n1 + n2" style="whiteSpace=wrap;html=1;" vertex="1" parent="1">
          <mxGeometry x="300" y="-660" width="120" height="60" as="geometry" />
        </mxCell>
        <mxCell id="P_nVTB-D-GrxN7raJfvm-11" value="" style="edgeStyle=orthogonalEdgeStyle;rounded=0;orthogonalLoop=1;jettySize=auto;html=1;" edge="1" parent="1" source="P_nVTB-D-GrxN7raJfvm-8" target="P_nVTB-D-GrxN7raJfvm-10">
          <mxGeometry relative="1" as="geometry" />
        </mxCell>
        <mxCell id="P_nVTB-D-GrxN7raJfvm-12" value="Verdadeiro" style="edgeLabel;html=1;align=center;verticalAlign=middle;resizable=0;points=[];" vertex="1" connectable="0" parent="P_nVTB-D-GrxN7raJfvm-11">
          <mxGeometry x="-0.1455" relative="1" as="geometry">
            <mxPoint as="offset" />
          </mxGeometry>
        </mxCell>
        <mxCell id="P_nVTB-D-GrxN7raJfvm-14" value="" style="edgeStyle=orthogonalEdgeStyle;rounded=0;orthogonalLoop=1;jettySize=auto;html=1;" edge="1" parent="1" source="P_nVTB-D-GrxN7raJfvm-8" target="P_nVTB-D-GrxN7raJfvm-13">
          <mxGeometry relative="1" as="geometry" />
        </mxCell>
        <mxCell id="P_nVTB-D-GrxN7raJfvm-15" value="Falso" style="edgeLabel;html=1;align=center;verticalAlign=middle;resizable=0;points=[];" vertex="1" connectable="0" parent="P_nVTB-D-GrxN7raJfvm-14">
          <mxGeometry x="-0.1778" y="-2" relative="1" as="geometry">
            <mxPoint as="offset" />
          </mxGeometry>
        </mxCell>
        <mxCell id="P_nVTB-D-GrxN7raJfvm-8" value="soma &amp;gt;= 10" style="rhombus;whiteSpace=wrap;html=1;" vertex="1" parent="1">
          <mxGeometry x="320" y="-510" width="80" height="80" as="geometry" />
        </mxCell>
        <mxCell id="P_nVTB-D-GrxN7raJfvm-17" value="" style="edgeStyle=orthogonalEdgeStyle;rounded=0;orthogonalLoop=1;jettySize=auto;html=1;" edge="1" parent="1" source="P_nVTB-D-GrxN7raJfvm-10" target="P_nVTB-D-GrxN7raJfvm-16">
          <mxGeometry relative="1" as="geometry" />
        </mxCell>
        <mxCell id="P_nVTB-D-GrxN7raJfvm-10" value="soma+5" style="shape=display;whiteSpace=wrap;html=1;" vertex="1" parent="1">
          <mxGeometry x="510" y="-490" width="80" height="40" as="geometry" />
        </mxCell>
        <mxCell id="P_nVTB-D-GrxN7raJfvm-18" style="edgeStyle=orthogonalEdgeStyle;rounded=0;orthogonalLoop=1;jettySize=auto;html=1;exitX=1;exitY=0.5;exitDx=0;exitDy=0;exitPerimeter=0;entryX=0;entryY=0.5;entryDx=0;entryDy=0;" edge="1" parent="1" source="P_nVTB-D-GrxN7raJfvm-13" target="P_nVTB-D-GrxN7raJfvm-16">
          <mxGeometry relative="1" as="geometry" />
        </mxCell>
        <mxCell id="P_nVTB-D-GrxN7raJfvm-13" value="soma-7" style="shape=display;whiteSpace=wrap;html=1;" vertex="1" parent="1">
          <mxGeometry x="320" y="-340" width="80" height="40" as="geometry" />
        </mxCell>
        <mxCell id="P_nVTB-D-GrxN7raJfvm-20" value="" style="edgeStyle=orthogonalEdgeStyle;rounded=0;orthogonalLoop=1;jettySize=auto;html=1;" edge="1" parent="1" source="P_nVTB-D-GrxN7raJfvm-16" target="P_nVTB-D-GrxN7raJfvm-19">
          <mxGeometry relative="1" as="geometry" />
        </mxCell>
        <mxCell id="P_nVTB-D-GrxN7raJfvm-16" value="" style="ellipse;whiteSpace=wrap;html=1;" vertex="1" parent="1">
          <mxGeometry x="540" y="-330" width="20" height="20" as="geometry" />
        </mxCell>
        <mxCell id="P_nVTB-D-GrxN7raJfvm-19" value="Fim" style="rounded=1;whiteSpace=wrap;html=1;fontSize=12;glass=0;strokeWidth=1;shadow=0;" vertex="1" parent="1">
          <mxGeometry x="520" y="-230" width="60" height="40" as="geometry" />
        </mxCell>
      </root>
    </mxGraphModel>
  </diagram>
</mxfile>
